<?xml version="1.0" standalone="no"?><!DOCTYPE svg PUBLIC "-//W3C//DTD SVG 1.1//EN" "http://www.w3.org/Graphics/SVG/1.1/DTD/svg11.dtd"><svg t="1665246366207" class="icon" viewBox="0 0 1024 1024" version="1.1" xmlns="http://www.w3.org/2000/svg" p-id="1556" xmlns:xlink="http://www.w3.org/1999/xlink" width="200" height="200"><path d="M985.742 749.936c0 130.902-106.178 236.964-237.13 236.964H274.298c-130.954 0-237.092-106.062-237.092-236.964V276.018c0-130.864 106.138-236.966 237.092-236.966h474.314c130.954 0 237.13 106.102 237.13 236.966v473.918z" fill="#FF6600" p-id="1557"></path><path d="M402.91 809.176h215.904c103.36 0 187.38-84.156 187.96-186.864l1.12-151.214-1.7-8.254-5.054-10.298-8.336-6.518c-10.926-8.524-66.196 0.542-81.092-12.92-10.572-9.68-12.196-27.112-15.36-50.64-5.944-45.782-9.728-48.134-16.868-63.56-26.012-55.038-96.646-96.382-145.158-102.128h-131.418c-103.37 0-187.858 84.31-187.858 187.21v218.324c0.002 102.706 84.49 186.862 187.86 186.862z m2.392-439.436h104.206c19.838 0 35.976 16.084 35.976 35.714 0 19.554-16.136 35.792-35.976 35.792h-104.206c-19.876 0-35.982-16.238-35.982-35.792 0.002-19.63 16.106-35.714 35.982-35.714z m0 214.198h211.696c19.802 0 35.816 16.004 35.816 35.636 0 19.362-16.014 35.636-35.816 35.636H405.302c-19.876 0-35.982-16.276-35.982-35.636 0.002-19.632 16.106-35.636 35.982-35.636z" fill="#FFFFFF" p-id="1558"></path><path d="M402.91 809.176h215.904c103.36 0 187.38-84.156 187.96-186.864l1.12-151.214-1.7-8.254-5.054-10.298-8.336-6.518c-10.926-8.524-66.196 0.542-81.092-12.92-10.572-9.68-12.196-27.112-15.36-50.64-5.944-45.782-9.728-48.134-16.868-63.56-26.012-55.038-96.646-96.382-145.158-102.128h-131.418c-103.37 0-187.858 84.31-187.858 187.21v218.324c0.002 102.706 84.49 186.862 187.86 186.862z m2.392-439.436h104.206c19.838 0 35.976 16.084 35.976 35.714 0 19.554-16.136 35.792-35.976 35.792h-104.206c-19.876 0-35.982-16.238-35.982-35.792 0.002-19.63 16.106-35.714 35.982-35.714z m0 214.198h211.696c19.802 0 35.816 16.004 35.816 35.636 0 19.362-16.014 35.636-35.816 35.636H405.302c-19.876 0-35.982-16.276-35.982-35.636 0.002-19.632 16.106-35.636 35.982-35.636z" fill="#FFFFFF" p-id="1559"></path><path d="M534.328 216.778c48.512 5.746 119.146 47.092 145.158 102.128 7.138 15.426 10.924 17.78 16.868 63.56 3.164 23.528 4.788 40.96 15.36 50.64 14.896 13.462 70.166 4.398 81.092 12.92l8.336 6.518 5.054 10.298 1.7 8.254-1.12 151.214c-0.58 102.708-84.602 186.864-187.96 186.864H402.91c-103.37 0-187.858-84.156-187.858-186.864V403.988c0-102.9 84.488-187.21 187.858-187.21h131.418m-129.026 224.468h104.206c19.838 0 35.976-16.238 35.976-35.792 0-19.63-16.136-35.714-35.976-35.714h-104.206c-19.876 0-35.982 16.084-35.982 35.714 0.002 19.554 16.106 35.792 35.982 35.792m0 213.964h211.696c19.802 0 35.816-16.276 35.816-35.636 0-19.632-16.014-35.636-35.816-35.636H405.302c-19.876 0-35.982 16.004-35.982 35.636 0.002 19.362 16.106 35.636 35.982 35.636m129.026-458.186h-131.418c-55.248 0-107.324 21.586-146.64 60.782-39.318 39.2-60.972 91.116-60.972 146.182v218.324c0 54.98 21.658 106.814 60.984 145.95 39.314 39.124 91.386 60.668 146.626 60.668h215.904c113.89 0 207.072-92.638 207.714-206.506l1.12-151.18a19.76 19.76 0 0 0-0.406-4.13l-1.7-8.254a19.6 19.6 0 0 0-1.616-4.72l-5.054-10.298a19.738 19.738 0 0 0-5.564-6.858l-8.336-6.518c-10-7.8-24.642-8.156-44.91-8.646-10.522-0.254-29.958-0.726-35.352-3.62-4.302-4.56-6.168-18.664-8.142-33.572-0.208-1.568-0.418-3.166-0.636-4.794-5.276-40.632-9.292-50.286-15.934-63.844-0.832-1.7-1.694-3.456-2.584-5.38l-0.068-0.144c-29.152-61.682-106.11-106.84-160.694-113.306a19.986 19.986 0 0 0-2.322-0.136z m-129.026 224.468c-8.796 0-16.228-7.344-16.228-16.038 0-8.8 7.28-15.96 16.228-15.96h104.206c8.944 0 16.222 7.16 16.222 15.96 0 8.694-7.428 16.038-16.222 16.038h-104.206z m0 213.966c-8.796 0-16.228-7.274-16.228-15.882 0-8.758 7.28-15.882 16.228-15.882h211.696c8.858 0 16.062 7.126 16.062 15.882 0 8.61-7.356 15.882-16.062 15.882H405.302z" fill="#803300" p-id="1560"></path><path d="M728.078 956.122H294.83c-124.896 0-226.506-101.636-226.506-226.566V296.358c0-124.908 101.61-226.526 226.506-226.526h433.248c124.918 0 226.544 101.62 226.544 226.526v433.198c0.002 124.928-101.626 226.566-226.544 226.566zM294.83 89.636c-113.976 0-206.702 92.734-206.702 206.72v433.198c0 114.008 92.726 206.762 206.702 206.762h433.248c113.996 0 206.74-92.754 206.74-206.762V296.358c0-113.986-92.744-206.72-206.74-206.72H294.83z" fill="#803300" p-id="1561"></path></svg>