<svg t="1702122299404" class="icon" viewBox="0 0 1024 1024" version="1.1" xmlns="http://www.w3.org/2000/svg" p-id="14151" width="200" height="200"><path d="M873.450667 287.808a199.381333 199.381333 0 0 1 134.805333 188.629333v11.733334a199.296 199.296 0 0 1-199.317333 199.296H199.296A199.296 199.296 0 0 1 0 488.170667v-11.733334a199.466667 199.466667 0 0 1 118.293333-182.165333 152.426667 152.426667 0 0 1 207.786667-123.562667A304.725333 304.725333 0 0 1 574.464 42.666667c147.925333 0 271.232 105.386667 298.986667 245.141333z m0 0a199.04 199.04 0 0 0-64.512-10.666667v70.336z m-577.024-53.12a81.28 81.28 0 0 1 6.144 2.432l28.266666-64.426667a151.68 151.68 0 0 0-4.757333-1.984z" fill="#409EFF" opacity=".3" p-id="14152"></path><path d="M308.48 752.128a35.413333 35.413333 0 0 1 0 49.962667l-33.152 33.301333a35.093333 35.093333 0 0 1-49.728 0 35.413333 35.413333 0 0 1 0-49.962667l33.152-33.301333a35.093333 35.093333 0 0 1 49.749333 0z m167.893333 0a35.413333 35.413333 0 0 1 0 49.962667l-33.152 33.301333a35.093333 35.093333 0 0 1-49.749333 0 35.413333 35.413333 0 0 1 0-49.962667L426.666667 752.128a35.093333 35.093333 0 0 1 49.728 0z m164.138667 0a35.413333 35.413333 0 0 1 0 49.962667L607.36 835.413333a35.093333 35.093333 0 0 1-49.749333 0 35.413333 35.413333 0 0 1 0-49.962666l33.152-33.301334a35.093333 35.093333 0 0 1 49.749333 0z m164.138667 0a35.413333 35.413333 0 0 1 0 49.962667l-33.173334 33.301333a35.093333 35.093333 0 0 1-49.728 0 35.413333 35.413333 0 0 1 0-49.962667l33.152-33.301333a35.093333 35.093333 0 0 1 49.749334 0zM202.986667 881.664a35.413333 35.413333 0 0 1 0 49.962667L169.813333 964.949333a35.093333 35.093333 0 0 1-49.728 0 35.413333 35.413333 0 0 1 0-49.962666l33.152-33.322667a35.093333 35.093333 0 0 1 49.749334 0z m167.893333 0a35.413333 35.413333 0 0 1 0 49.962667l-33.173333 33.322666a35.093333 35.093333 0 0 1-49.749334 0 35.413333 35.413333 0 0 1 0-49.962666l33.173334-33.322667a35.093333 35.093333 0 0 1 49.728 0z m164.117333 0a35.413333 35.413333 0 0 1 0 49.962667l-33.152 33.322666a35.093333 35.093333 0 0 1-49.749333 0 35.413333 35.413333 0 0 1 0-49.962666l33.173333-33.322667a35.093333 35.093333 0 0 1 49.728 0z m164.138667 0a35.413333 35.413333 0 0 1 0 49.962667l-33.173333 33.322666a35.093333 35.093333 0 0 1-49.728 0 35.413333 35.413333 0 0 1 0-49.962666l33.152-33.322667a35.093333 35.093333 0 0 1 49.749333 0z m174.293333-593.770667a199.466667 199.466667 0 0 1 134.826667 188.693334v11.733333c0 110.122667-89.237333 199.381333-199.317333 199.381333H199.296C89.216 687.701333 0 598.442667 0 488.32v-11.733333a199.530667 199.530667 0 0 1 118.293333-182.229334 152.448 152.448 0 0 1 207.786667-123.605333A304.704 304.704 0 0 1 574.464 42.666667c147.925333 0 271.232 105.386667 298.986667 245.226666z m-64.490666 59.690667c0-129.536-104.96-234.56-234.453334-234.56a234.517333 234.517333 0 0 0-215.466666 141.866667c-0.64 1.472-1.493333 3.2-2.218667 4.586666l-0.085333 0.149334-60.288-24.853334a82.090667 82.090667 0 0 0-108.842667 77.504l2.496 35.626667a129.002667 129.002667 0 0 0-119.744 128.682667v11.733333a128.981333 128.981333 0 0 0 128.96 129.002667H808.96a128.981333 128.981333 0 0 0 128.96-129.002667v-11.733333a128.981333 128.981333 0 0 0-128.96-129.002667z" fill="#000000" p-id="14153"></path></svg>
